<svg version="1.0" preserveAspectRatio="xMidYMid meet" viewBox="67.5 144.74999652600002 235.5 77.999998128" zoomAndPan="magnify" xmlns:xlink="http://www.w3.org/1999/xlink" xmlns="http://www.w3.org/2000/svg" style="max-height: 500px" width="235.5" height="77.999998128"><defs><g/><clipPath id="bf2d0dc94e"><path clip-rule="nonzero" d="M 68.730469 145.96875 L 145.980469 145.96875 L 145.980469 220.96875 L 68.730469 220.96875 Z M 68.730469 145.96875"/></clipPath><clipPath id="76ef1566da"><path clip-rule="nonzero" d="M 76.179688 154.871094 L 139 154.871094 L 139 189.371094 L 76.179688 189.371094 Z M 76.179688 154.871094"/></clipPath><clipPath id="dfa5d2fafa"><path clip-rule="nonzero" d="M 84.957031 154 L 93 154 L 93 193 L 84.957031 193 Z M 84.957031 154"/></clipPath><clipPath id="ccd94d23e0"><path clip-rule="nonzero" d="M 104 151.167969 L 129.957031 151.167969 L 129.957031 196.167969 L 104 196.167969 Z M 104 151.167969"/></clipPath></defs><g clip-path="url(#bf2d0dc94e)"><path fill-rule="nonzero" fill-opacity="1" d="M 134.445312 145.96875 L 80.539062 145.96875 C 74.039062 145.96875 68.769531 151.238281 68.769531 157.738281 L 68.769531 190.453125 C 68.769531 196.953125 74.039062 202.222656 80.539062 202.222656 L 90.632812 202.222656 C 92.816406 202.222656 94.835938 203.386719 95.929688 205.277344 L 103.289062 218.03125 C 105.15625 221.265625 109.824219 221.265625 111.691406 218.03125 L 119.058594 205.277344 C 120.148438 203.386719 122.164062 202.222656 124.351562 202.222656 L 134.445312 202.222656 C 140.945312 202.222656 146.214844 196.953125 146.214844 190.453125 L 146.214844 157.738281 C 146.214844 151.238281 140.945312 145.96875 134.445312 145.96875" fill="#ff0000"/></g><path fill-rule="nonzero" fill-opacity="1" d="M 105.40625 170.242188 C 105.40625 173.609375 102.675781 176.339844 99.308594 176.339844 C 95.941406 176.339844 93.210938 173.609375 93.210938 170.242188 C 93.210938 166.875 95.941406 164.144531 99.308594 164.144531 C 102.675781 164.144531 105.40625 166.875 105.40625 170.242188" fill="#ffffff"/><path fill-rule="nonzero" fill-opacity="1" d="M 109.867188 187.453125 L 88.75 187.453125 L 88.75 184.316406 C 88.75 180.582031 91.777344 177.554688 95.511719 177.554688 L 103.105469 177.554688 C 106.839844 177.554688 109.867188 180.582031 109.867188 184.316406 L 109.867188 187.453125" fill="#ffffff"/><path fill-rule="nonzero" fill-opacity="1" d="M 123.71875 168.597656 L 123.65625 168.597656 L 120.3125 170.40625 L 119.808594 168.421875 L 124.015625 166.171875 L 126.234375 166.171875 L 126.234375 185.425781 L 123.71875 185.425781 L 123.71875 168.597656" fill="#ffffff"/><g clip-path="url(#76ef1566da)"><path fill-rule="nonzero" fill-opacity="1" d="M 76.210938 154.871094 L 138.773438 154.871094 L 138.773438 189.628906 L 76.210938 189.628906 Z M 76.210938 154.871094" fill="#ff0000"/></g><path fill-rule="nonzero" fill-opacity="1" d="M 98.042969 175.15625 L 99.496094 175.15625 C 99.496094 173.148438 101.125 171.519531 103.128906 171.519531 L 103.128906 170.066406 C 101.523438 170.066406 100.222656 168.765625 100.222656 167.160156 C 100.222656 165.550781 101.523438 164.25 103.128906 164.25 L 103.128906 162.796875 C 100.722656 162.796875 98.769531 164.753906 98.769531 167.160156 C 98.769531 168.632812 99.511719 169.9375 100.628906 170.726562 C 99.089844 171.601562 98.042969 173.257812 98.042969 175.15625 Z M 98.042969 175.15625" fill="#ffffff"/><path fill-rule="nonzero" fill-opacity="1" d="M 97.277344 177.449219 L 103.09375 177.160156 L 103.167969 178.609375 L 97.351562 178.902344 Z M 97.277344 177.449219" fill="#ffffff"/><path fill-rule="nonzero" fill-opacity="1" d="M 97.277344 180.351562 L 103.09375 180.0625 L 103.167969 181.515625 L 97.351562 181.804688 Z M 97.277344 180.351562" fill="#ffffff"/><path fill-rule="nonzero" fill-opacity="1" d="M 97.277344 183.265625 L 103.09375 182.972656 L 103.167969 184.425781 L 97.351562 184.71875 Z M 97.277344 183.265625" fill="#ffffff"/><path fill-rule="nonzero" fill-opacity="1" d="M 88.628906 178.898438 L 92.226562 178.71875 L 92.226562 177.261719 L 88.554688 177.445312 Z M 88.628906 178.898438" fill="#ffffff"/><path fill-rule="nonzero" fill-opacity="1" d="M 88.628906 181.808594 L 92.226562 181.625 L 92.226562 180.171875 L 88.554688 180.351562 Z M 88.628906 181.808594" fill="#ffffff"/><path fill-rule="nonzero" fill-opacity="1" d="M 88.628906 184.714844 L 92.226562 184.53125 L 92.226562 183.078125 L 88.554688 183.261719 Z M 88.628906 184.714844" fill="#ffffff"/><path fill-rule="nonzero" fill-opacity="1" d="M 93.207031 152.792969 C 93.046875 152.933594 92.953125 153.136719 92.953125 153.347656 L 92.953125 194.054688 C 92.953125 194.265625 93.046875 194.46875 93.207031 194.609375 C 93.339844 194.722656 93.503906 194.78125 93.679688 194.78125 C 93.714844 194.78125 93.753906 194.78125 93.789062 194.773438 L 103.128906 193.363281 L 103.128906 191.890625 L 94.40625 193.210938 L 94.40625 154.191406 L 103.128906 155.511719 L 103.128906 154.039062 L 93.789062 152.628906 C 93.578125 152.597656 93.367188 152.65625 93.207031 152.792969 Z M 93.207031 152.792969" fill="#ffffff"/><g clip-path="url(#dfa5d2fafa)"><path fill-rule="nonzero" fill-opacity="1" d="M 85.683594 192.601562 C 85.683594 192.601562 85.757812 192.601562 85.792969 192.59375 L 92.226562 191.621094 L 92.226562 190.144531 L 86.410156 191.03125 L 86.410156 156.371094 L 92.226562 157.257812 L 92.226562 155.78125 L 85.792969 154.808594 C 85.582031 154.777344 85.371094 154.835938 85.210938 154.976562 C 85.050781 155.113281 84.957031 155.316406 84.957031 155.527344 L 84.957031 191.875 C 84.957031 192.085938 85.050781 192.289062 85.210938 192.425781 C 85.339844 192.542969 85.507812 192.601562 85.683594 192.601562 Z M 85.683594 192.601562" fill="#ffffff"/></g><path fill-rule="nonzero" fill-opacity="1" d="M 116.933594 168.597656 L 116.941406 168.597656 C 118.105469 168.597656 119.195312 168.148438 120.015625 167.324219 C 120.84375 166.503906 121.296875 165.40625 121.304688 164.242188 C 121.304688 163.082031 120.851562 161.984375 120.03125 161.15625 C 119.210938 160.332031 118.113281 159.875 116.949219 159.875 L 116.941406 159.875 C 114.535156 159.875 112.582031 161.824219 112.582031 164.230469 C 112.574219 165.390625 113.03125 166.488281 113.851562 167.3125 C 114.675781 168.140625 115.765625 168.597656 116.933594 168.597656 Z M 116.933594 168.597656" fill="#ffffff"/><path fill-rule="nonzero" fill-opacity="1" d="M 88.589844 175.15625 L 90.046875 175.15625 C 90.046875 173.664062 90.945312 172.386719 92.226562 171.820312 L 92.226562 169.675781 C 91.355469 169.171875 90.773438 168.234375 90.773438 167.160156 C 90.773438 166.082031 91.355469 165.144531 92.226562 164.644531 L 92.226562 163.050781 C 90.53125 163.640625 89.316406 165.261719 89.316406 167.160156 C 89.316406 168.632812 90.050781 169.941406 91.179688 170.726562 C 89.636719 171.601562 88.589844 173.257812 88.589844 175.15625 Z M 88.589844 175.15625" fill="#ffffff"/><g clip-path="url(#ccd94d23e0)"><path fill-rule="nonzero" fill-opacity="1" d="M 129.410156 154.808594 L 105.417969 151.171875 C 105.210938 151.144531 105 151.203125 104.839844 151.339844 C 104.679688 151.480469 104.582031 151.683594 104.582031 151.894531 L 104.582031 195.507812 C 104.582031 195.71875 104.679688 195.925781 104.839844 196.0625 C 104.96875 196.179688 105.144531 196.238281 105.3125 196.238281 C 105.347656 196.238281 105.382812 196.238281 105.417969 196.230469 L 129.410156 192.59375 C 129.765625 192.542969 130.027344 192.238281 130.027344 191.875 L 130.027344 155.527344 C 130.027344 155.171875 129.765625 154.867188 129.410156 154.808594 Z M 112.820312 168.335938 C 111.722656 167.238281 111.117188 165.777344 111.125 164.222656 C 111.132812 161.023438 113.734375 158.421875 116.941406 158.421875 L 116.949219 158.421875 C 120.15625 158.429688 122.765625 161.039062 122.757812 164.242188 C 122.75 165.800781 122.148438 167.261719 121.042969 168.359375 C 120.808594 168.589844 120.5625 168.792969 120.292969 168.976562 C 122.152344 169.738281 123.46875 171.570312 123.460938 173.703125 L 122.007812 173.703125 C 122.015625 171.695312 120.386719 170.058594 118.382812 170.050781 L 115.472656 170.050781 C 115.472656 170.050781 115.464844 170.042969 115.464844 170.042969 C 113.46875 170.042969 111.839844 171.671875 111.832031 173.671875 L 110.378906 173.671875 C 110.386719 171.542969 111.699219 169.71875 113.570312 168.96875 C 113.300781 168.78125 113.054688 168.570312 112.820312 168.335938 Z M 125.628906 175.773438 L 125.703125 177.226562 L 108.980469 178.0625 L 108.910156 176.609375 Z M 125.628906 178.679688 L 125.703125 180.132812 L 108.980469 180.972656 L 108.910156 179.515625 Z M 125.703125 183.042969 L 122.4375 183.203125 L 122.363281 181.753906 L 125.628906 181.589844 Z M 120.394531 183.304688 L 114.289062 183.609375 L 114.214844 182.164062 L 120.320312 181.859375 Z M 112.171875 182.265625 L 112.246094 183.710938 L 108.980469 183.878906 L 108.910156 182.425781 Z M 112.171875 182.265625" fill="#ffffff"/></g><g fill-opacity="1" fill="#ffffff"><g transform="translate(155.433172, 168.242538)"><g><path d="M 5.53125 -0.5 L 5.390625 -0.875 L 5.1875 -1.3125 L 3.359375 -6.421875 L 3.15625 -6.78125 L 2.53125 -8.484375 L 2.390625 -8.96875 L 1.46875 -11.5 L 1.265625 -11.875 L 0.3125 -14.453125 L 0.203125 -15.0625 L 0.296875 -15.578125 L 0.765625 -15.71875 L 1.234375 -15.734375 L 1.640625 -15.8125 L 2.046875 -15.71875 L 3.859375 -15.6875 L 4.28125 -15.484375 L 4.6875 -15.125 L 4.875 -14.671875 L 4.953125 -14.234375 L 5.234375 -13.34375 L 5.40625 -12.96875 L 6.859375 -8.046875 L 6.9375 -7.515625 L 7.125 -7.53125 L 7.46875 -8.390625 L 7.546875 -8.859375 L 7.78125 -9.203125 L 8.59375 -11.8125 L 8.921875 -12.625 L 9.671875 -14.859375 L 10.0625 -15.3125 L 10.5 -15.53125 L 11 -15.53125 L 11.46875 -15.265625 L 11.796875 -14.8125 L 11.96875 -14.40625 L 12.15625 -14.03125 L 12.421875 -13.125 L 12.609375 -12.6875 L 12.828125 -11.84375 L 13.796875 -9.296875 L 13.90625 -8.84375 L 14.359375 -7.546875 L 14.59375 -7.53125 L 14.71875 -7.953125 L 14.875 -8.90625 L 15.171875 -9.859375 L 15.265625 -10.296875 L 16.5 -14.265625 L 16.703125 -14.65625 L 16.8125 -15.078125 L 17.203125 -15.5625 L 17.671875 -15.78125 L 18.109375 -15.71875 L 18.578125 -15.765625 L 19.484375 -15.71875 L 20.265625 -15.765625 L 20.71875 -15.6875 L 21.171875 -15.578125 L 21.3125 -15.03125 L 20.875 -13.65625 L 20.65625 -13.25 L 20.546875 -12.765625 L 19.09375 -8.921875 L 19 -8.546875 L 18.796875 -8.140625 L 18.625 -7.515625 L 17.875 -5.59375 L 17.671875 -5.203125 L 16.328125 -1.28125 L 16.125 -0.875 L 15.984375 -0.453125 L 15.640625 -0.046875 L 15.109375 0.140625 L 14.71875 0.203125 L 14.296875 0.21875 L 13.78125 -0.046875 L 13.34375 -0.515625 L 13.21875 -0.953125 L 12.875 -1.6875 L 11.59375 -5.15625 L 11.203125 -5.9375 L 11.078125 -6.40625 L 10.84375 -6.78125 L 10.625 -6.859375 L 10.328125 -5.96875 L 9.921875 -5.125 L 9.78125 -4.640625 L 9.09375 -2.96875 L 8.96875 -2.609375 L 8.765625 -2.140625 L 8.65625 -1.765625 L 8.4375 -1.359375 L 8.296875 -0.859375 L 8.09375 -0.46875 L 7.734375 0 L 7.234375 0.1875 L 6.375 0.203125 L 5.890625 -0.09375 Z M 5.53125 -0.5"/></g></g></g><g fill-opacity="1" fill="#ffffff"><g transform="translate(177.60817, 168.242538)"><g><path d="M 1.640625 -0.625 L 1.71875 -2.484375 L 1.640625 -2.890625 L 1.640625 -9.625 L 1.6875 -10.078125 L 1.671875 -10.625 L 1.71875 -11.46875 L 1.625 -12.40625 L 1.671875 -12.859375 L 1.625 -14.609375 L 1.671875 -15.109375 L 1.890625 -15.5625 L 2.390625 -15.78125 L 4.625 -15.734375 L 5.125 -15.78125 L 5.59375 -15.53125 L 5.796875 -15.109375 L 5.84375 -14.265625 L 5.796875 -13.78125 L 5.765625 -12.015625 L 5.796875 -11.609375 L 5.796875 -11.140625 L 5.8125 -10.640625 L 6.046875 -10.21875 L 6.46875 -10.015625 L 7.796875 -9.984375 L 8.203125 -10.03125 L 8.6875 -9.984375 L 9.5625 -10.078125 L 9.984375 -10.015625 L 10.4375 -10.265625 L 10.6875 -10.703125 L 10.703125 -12.46875 L 10.640625 -12.890625 L 10.6875 -13.828125 L 10.640625 -14.203125 L 10.671875 -15.0625 L 10.890625 -15.609375 L 11.546875 -15.765625 L 14.140625 -15.734375 L 14.59375 -15.5625 L 14.796875 -15.078125 L 14.765625 -3.765625 L 14.828125 -3.40625 L 14.765625 -2.6875 L 14.8125 -0.625 L 14.546875 -0.25 L 14.109375 0.046875 L 13.1875 -0.015625 L 12.734375 0.015625 L 11.5625 0.015625 L 10.90625 -0.265625 L 10.671875 -0.625 L 10.640625 -5.609375 L 10.421875 -6.046875 L 9.984375 -6.296875 L 9.578125 -6.296875 L 9.109375 -6.359375 L 6.453125 -6.328125 L 5.96875 -6.046875 L 5.765625 -5.5625 L 5.765625 -1.578125 L 5.8125 -1.078125 L 5.765625 -0.65625 L 5.59375 -0.21875 L 5.125 0.046875 L 4.171875 0.015625 L 3.703125 0.0625 L 2.796875 0.015625 L 2.34375 0.046875 L 1.921875 -0.203125 Z M 1.640625 -0.625"/></g></g></g><g fill-opacity="1" fill="#ffffff"><g transform="translate(194.780349, 168.242538)"><g><path d="M 9.046875 0.296875 L 7.6875 0.21875 L 5.765625 -0.34375 L 5.34375 -0.515625 L 3.8125 -1.328125 L 3.515625 -1.671875 L 2.890625 -2.28125 L 1.828125 -3.71875 L 1.59375 -4.125 L 1.46875 -4.59375 L 1.125 -5.359375 L 0.875 -6.78125 L 0.96875 -9.40625 L 1.15625 -10.375 L 1.578125 -11.609375 L 1.78125 -12 L 2.546875 -13.125 L 3.15625 -13.796875 L 3.875 -14.296875 L 4.1875 -14.5625 L 5.34375 -15.28125 L 6.203125 -15.515625 L 6.609375 -15.6875 L 7.0625 -15.828125 L 7.515625 -15.921875 L 9.09375 -16.015625 L 10.140625 -15.984375 L 13.09375 -15.0625 L 14.25 -14.34375 L 15.21875 -13.453125 L 15.515625 -13.046875 L 15.78125 -12.78125 L 16.078125 -12.40625 L 16.234375 -12 L 16.640625 -11.25 L 16.75 -10.734375 L 16.9375 -10.265625 L 17.109375 -9.421875 L 17.21875 -7.875 L 17.109375 -6.296875 L 17.015625 -5.796875 L 16.890625 -5.4375 L 16.8125 -4.984375 L 16.65625 -4.546875 L 15.78125 -3 L 15.484375 -2.59375 L 13.90625 -1.078125 L 11.90625 -0.1875 L 11.046875 0.09375 Z M 8.40625 -3.671875 L 9.71875 -3.71875 L 10.140625 -3.828125 L 10.546875 -3.875 L 10.90625 -4.078125 L 11.3125 -4.265625 L 12.015625 -4.796875 L 12.28125 -5.203125 L 12.484375 -5.546875 L 12.734375 -5.890625 L 12.9375 -6.8125 L 13.078125 -7.9375 L 12.984375 -8.90625 L 12.828125 -9.3125 L 12.6875 -9.765625 L 12.515625 -10.171875 L 12 -10.9375 L 11.296875 -11.453125 L 10.09375 -11.96875 L 9.015625 -12.046875 L 7.984375 -11.953125 L 7.515625 -11.84375 L 7.109375 -11.640625 L 6.453125 -11.1875 L 6.109375 -10.890625 L 5.8125 -10.53125 L 5.609375 -10.140625 L 5.34375 -9.828125 L 5.203125 -9.421875 L 5.046875 -8.59375 L 5.03125 -7.90625 L 5.140625 -6.78125 L 5.5625 -5.53125 L 5.859375 -5.203125 L 6.09375 -4.890625 L 6.78125 -4.28125 L 7.546875 -3.875 L 7.953125 -3.828125 Z M 8.40625 -3.671875"/></g></g></g><g fill-opacity="1" fill="#ffffff"><g transform="translate(213.529993, 168.242538)"><g/></g></g><g fill-opacity="1" fill="#ffffff"><g transform="translate(220.313443, 168.242538)"><g><path d="M 13.296875 0.046875 L 12.828125 0 L 12.3125 -0.21875 L 11.859375 -0.5625 L 11.71875 -0.96875 L 11.515625 -1.390625 L 11.09375 -1.765625 L 10.59375 -2 L 10.09375 -1.9375 L 9.6875 -1.984375 L 7.484375 -1.96875 L 7.078125 -2.03125 L 6.125 -1.9375 L 5.703125 -2 L 5.234375 -1.765625 L 4.796875 -1.328125 L 4.390625 -0.59375 L 3.96875 -0.1875 L 3.453125 -0.015625 L 2.1875 0.015625 L 1.734375 -0.015625 L 0.859375 0.015625 L 0.40625 -0.109375 L 0.296875 -0.671875 L 0.421875 -1.125 L 0.875 -2.03125 L 0.984375 -2.4375 L 1.234375 -2.75 L 1.578125 -3.65625 L 1.984375 -4.375 L 2.140625 -4.828125 L 2.375 -5.15625 L 2.5 -5.65625 L 4.796875 -10.484375 L 4.9375 -10.890625 L 5.1875 -11.3125 L 5.296875 -11.765625 L 5.546875 -12.109375 L 6.453125 -14.1875 L 6.65625 -14.5 L 6.8125 -14.953125 L 7.015625 -15.328125 L 7.421875 -15.71875 L 8.140625 -15.96875 L 8.890625 -15.734375 L 9.265625 -15.328125 L 9.6875 -14.546875 L 9.828125 -14.140625 L 10.078125 -13.734375 L 10.21875 -13.28125 L 11.703125 -10.140625 L 11.859375 -9.671875 L 12.328125 -8.84375 L 12.46875 -8.484375 L 12.671875 -8.140625 L 12.8125 -7.640625 L 13.03125 -7.21875 L 13.25 -6.875 L 14.109375 -4.828125 L 14.5625 -4.015625 L 14.875 -3.171875 L 15.484375 -2 L 15.828125 -1.171875 L 15.984375 -0.65625 L 15.921875 -0.109375 L 15.28125 0 L 14.59375 0.015625 L 14.15625 -0.015625 Z M 8.1875 -5.5625 L 9.09375 -5.59375 L 9.421875 -5.765625 L 9.515625 -6.171875 L 8.453125 -8.65625 L 8.140625 -8.84375 L 7.890625 -8.640625 L 6.828125 -6.203125 L 6.859375 -5.765625 L 7.21875 -5.609375 L 7.734375 -5.65625 Z M 8.1875 -5.5625"/></g></g></g><g fill-opacity="1" fill="#ffffff"><g transform="translate(237.350411, 168.242538)"><g><path d="M 1.828125 -10.296875 L 1.84375 -10.578125 L 1.984375 -10.78125 L 2.078125 -11.296875 L 2.1875 -11.59375 L 2 -11.90625 L 1.78125 -12 L 1.515625 -12.125 L 1.265625 -12.3125 L 1.109375 -12.515625 L 0.8125 -13.015625 L 0.765625 -13.234375 L 0.65625 -13.5 L 0.703125 -14.0625 L 0.8125 -14.5625 L 0.90625 -14.8125 L 1.03125 -15.03125 L 1.390625 -15.421875 L 1.625 -15.5625 L 2.09375 -15.78125 L 2.328125 -15.828125 L 2.59375 -15.890625 L 3.140625 -15.890625 L 3.921875 -15.71875 L 4.15625 -15.53125 L 4.375 -15.4375 L 4.59375 -15.265625 L 4.890625 -14.828125 L 5.125 -14.3125 L 5.15625 -14.046875 L 5.125 -13.484375 L 4.921875 -12.71875 L 4.75 -12.40625 L 4.734375 -12.15625 L 4.640625 -11.90625 L 4.484375 -11.65625 L 4.109375 -10.28125 L 3.703125 -10.015625 L 3.421875 -10.03125 L 2.546875 -10.015625 L 2.28125 -10.0625 L 2 -10.0625 Z M 1.828125 -10.296875"/></g></g></g><g fill-opacity="1" fill="#ffffff"><g transform="translate(243.728237, 168.242538)"><g><path d="M 7.546875 0.09375 L 7.109375 -0.015625 L 6 -0.015625 L 5.328125 0.0625 L 4.421875 -0.015625 L 3.96875 0.015625 L 3.265625 0.046875 L 2.609375 -0.046875 L 2.1875 0 L 1.765625 0 L 1.3125 -0.203125 L 1.078125 -0.8125 L 1.15625 -2.890625 L 1.390625 -3.296875 L 2.890625 -3.75 L 3.140625 -4.421875 L 3.0625 -11.34375 L 2.859375 -11.953125 L 2.4375 -12.21875 L 1.984375 -12.21875 L 1.484375 -12.46875 L 1.234375 -12.921875 L 1.28125 -13.34375 L 1.21875 -15.015625 L 1.4375 -15.5625 L 1.890625 -15.78125 L 2.40625 -15.78125 L 2.84375 -15.71875 L 4.6875 -15.71875 L 5.140625 -15.8125 L 5.546875 -15.765625 L 8.28125 -15.765625 L 8.6875 -15.515625 L 8.953125 -15.078125 L 8.921875 -12.859375 L 8.703125 -12.484375 L 8.234375 -12.3125 L 7.78125 -12.25 L 7.28125 -12.046875 L 7.125 -11.515625 L 7.03125 -9.25 L 7.125 -7.625 L 7.078125 -7.125 L 7.109375 -4.640625 L 7.03125 -4.21875 L 7.3125 -3.703125 L 7.84375 -3.515625 L 8.3125 -3.515625 L 8.8125 -3.265625 L 9.09375 -2.84375 L 9.09375 -0.609375 L 8.859375 -0.1875 L 8.453125 0.046875 Z M 7.546875 0.09375"/></g></g></g><g fill-opacity="1" fill="#ffffff"><g transform="translate(254.635635, 168.242538)"><g><path d="M 13.296875 -0.390625 L 12.96875 -0.671875 L 12.375 -1.328125 L 8.890625 -4.796875 L 8.5 -5.046875 L 8.203125 -5.390625 L 6.609375 -6.921875 L 6.3125 -7.3125 L 6.015625 -7.421875 L 5.859375 -7.03125 L 5.8125 -6.578125 L 5.796875 -0.875 L 5.5625 -0.1875 L 5.125 0.046875 L 4.640625 0.0625 L 3.765625 0 L 3.265625 0.046875 L 2.34375 0 L 1.875 -0.15625 L 1.671875 -0.59375 L 1.625 -2.484375 L 1.671875 -2.90625 L 1.625 -6.609375 L 1.6875 -6.984375 L 1.640625 -7.90625 L 1.671875 -8.296875 L 1.671875 -15.125 L 1.875 -15.5625 L 2.390625 -15.78125 L 3.0625 -15.625 L 3.578125 -15.359375 L 3.921875 -15.078125 L 8.359375 -10.59375 L 9 -10.09375 L 10.59375 -8.5 L 10.9375 -8.34375 L 11.078125 -8.71875 L 11.109375 -12.765625 L 11.078125 -13.25 L 11.140625 -14.203125 L 11.078125 -14.5625 L 11.09375 -15.03125 L 11.34375 -15.515625 L 11.765625 -15.765625 L 14.5625 -15.78125 L 15.015625 -15.53125 L 15.234375 -15.078125 L 15.3125 -11.953125 L 15.234375 -11.40625 L 15.234375 -9.171875 L 15.3125 -8.796875 L 15.265625 -0.5625 L 15.03125 -0.109375 L 14.546875 0.046875 L 13.90625 -0.015625 Z M 13.296875 -0.390625"/></g></g></g><g fill-opacity="1" fill="#ffffff"><g transform="translate(272.303594, 168.242538)"><g><path d="M 5.890625 0.046875 L 5.1875 0.015625 L 4.53125 -0.203125 L 4.234375 -0.703125 L 4.28125 -1.125 L 4.3125 -2.4375 L 4.265625 -2.90625 L 4.28125 -4.734375 L 4.328125 -5.1875 L 4.265625 -8.546875 L 4.3125 -9.171875 L 4.28125 -9.625 L 4.3125 -10.125 L 4.265625 -10.75 L 4.3125 -11.46875 L 4.0625 -11.921875 L 3.625 -12.15625 L 1.484375 -12.203125 L 1.03125 -12.15625 L 0.625 -12.375 L 0.421875 -12.78125 L 0.390625 -13.484375 L 0.421875 -14.609375 L 0.40625 -15.0625 L 0.671875 -15.578125 L 1.109375 -15.8125 L 2.6875 -15.71875 L 3.375 -15.78125 L 4.71875 -15.71875 L 5.125 -15.8125 L 5.609375 -15.765625 L 6.09375 -15.828125 L 6.515625 -15.8125 L 6.96875 -15.71875 L 8.796875 -15.8125 L 9.21875 -15.765625 L 9.6875 -15.828125 L 10.125 -15.78125 L 11.515625 -15.78125 L 11.953125 -15.484375 L 12.203125 -15.03125 L 12.171875 -12.890625 L 11.90625 -12.40625 L 11.515625 -12.15625 L 11.109375 -12.171875 L 10.640625 -12.109375 L 9.8125 -12.21875 L 8.921875 -12.171875 L 8.5 -11.90625 L 8.3125 -11.234375 L 8.25 -9.265625 L 8.3125 -8.796875 L 8.28125 -5.15625 L 8.34375 -4.671875 L 8.296875 -4.265625 L 8.3125 -3.359375 L 8.28125 -2.890625 L 8.34375 -2.03125 L 8.28125 -0.859375 L 8.046875 -0.21875 L 7.390625 0 Z M 5.890625 0.046875"/></g></g></g><g fill-opacity="1" fill="#ffffff"><g transform="translate(155.433172, 191.492536)"><g><path d="M 1.640625 -0.65625 L 1.625 -7.421875 L 1.671875 -7.9375 L 1.625 -8.359375 L 1.640625 -8.796875 L 1.6875 -9.203125 L 1.640625 -9.71875 L 1.6875 -10.125 L 1.671875 -10.59375 L 1.625 -10.984375 L 1.71875 -13.5 L 1.640625 -14.1875 L 1.71875 -15.109375 L 1.84375 -15.515625 L 2.34375 -15.765625 L 2.96875 -15.734375 L 3.453125 -15.78125 L 4.59375 -15.78125 L 5 -15.734375 L 5.890625 -15.734375 L 6.578125 -15.78125 L 7.03125 -15.765625 L 7.71875 -15.8125 L 8.109375 -15.765625 L 9 -15.8125 L 9.5 -15.734375 L 10.84375 -15.765625 L 11.234375 -15.515625 L 11.5 -14.828125 L 11.453125 -13.984375 L 11.5 -12.828125 L 11.265625 -12.375 L 10.828125 -12.15625 L 9.109375 -12.203125 L 8.640625 -12.15625 L 8.1875 -12.171875 L 7.78125 -12.15625 L 7.125 -12.203125 L 6.40625 -12.203125 L 5.96875 -11.90625 L 5.75 -11.453125 L 5.796875 -10.4375 L 5.75 -10.015625 L 5.75 -9.375 L 6 -8.90625 L 6.453125 -8.71875 L 6.9375 -8.75 L 7.828125 -8.640625 L 9.015625 -8.71875 L 10.125 -8.6875 L 10.59375 -8.5 L 10.828125 -8.046875 L 10.84375 -6.046875 L 10.625 -5.34375 L 10.140625 -5.125 L 9.21875 -5.078125 L 8.765625 -5.125 L 8.296875 -5.09375 L 7.84375 -5.140625 L 7.390625 -5.046875 L 6.921875 -5.140625 L 6.421875 -5.09375 L 5.96875 -4.890625 L 5.765625 -4.4375 L 5.796875 -2.046875 L 5.75 -1.625 L 5.8125 -0.90625 L 5.546875 -0.21875 L 5.078125 -0.015625 L 3.953125 0.0625 L 2.375 0 L 1.875 -0.21875 Z M 1.640625 -0.65625"/></g></g></g><g fill-opacity="1" fill="#ffffff"><g transform="translate(168.391271, 191.492536)"><g><path d="M 9.046875 0.296875 L 7.6875 0.21875 L 5.765625 -0.34375 L 5.34375 -0.515625 L 3.8125 -1.328125 L 3.515625 -1.671875 L 2.890625 -2.28125 L 1.828125 -3.71875 L 1.59375 -4.125 L 1.46875 -4.59375 L 1.125 -5.359375 L 0.875 -6.78125 L 0.96875 -9.40625 L 1.15625 -10.375 L 1.578125 -11.609375 L 1.78125 -12 L 2.546875 -13.125 L 3.15625 -13.796875 L 3.875 -14.296875 L 4.1875 -14.5625 L 5.34375 -15.28125 L 6.203125 -15.515625 L 6.609375 -15.6875 L 7.0625 -15.828125 L 7.515625 -15.921875 L 9.09375 -16.015625 L 10.140625 -15.984375 L 13.09375 -15.0625 L 14.25 -14.34375 L 15.21875 -13.453125 L 15.515625 -13.046875 L 15.78125 -12.78125 L 16.078125 -12.40625 L 16.234375 -12 L 16.640625 -11.25 L 16.75 -10.734375 L 16.9375 -10.265625 L 17.109375 -9.421875 L 17.21875 -7.875 L 17.109375 -6.296875 L 17.015625 -5.796875 L 16.890625 -5.4375 L 16.8125 -4.984375 L 16.65625 -4.546875 L 15.78125 -3 L 15.484375 -2.59375 L 13.90625 -1.078125 L 11.90625 -0.1875 L 11.046875 0.09375 Z M 8.40625 -3.671875 L 9.71875 -3.71875 L 10.140625 -3.828125 L 10.546875 -3.875 L 10.90625 -4.078125 L 11.3125 -4.265625 L 12.015625 -4.796875 L 12.28125 -5.203125 L 12.484375 -5.546875 L 12.734375 -5.890625 L 12.9375 -6.8125 L 13.078125 -7.9375 L 12.984375 -8.90625 L 12.828125 -9.3125 L 12.6875 -9.765625 L 12.515625 -10.171875 L 12 -10.9375 L 11.296875 -11.453125 L 10.09375 -11.96875 L 9.015625 -12.046875 L 7.984375 -11.953125 L 7.515625 -11.84375 L 7.109375 -11.640625 L 6.453125 -11.1875 L 6.109375 -10.890625 L 5.8125 -10.53125 L 5.609375 -10.140625 L 5.34375 -9.828125 L 5.203125 -9.421875 L 5.046875 -8.59375 L 5.03125 -7.90625 L 5.140625 -6.78125 L 5.5625 -5.53125 L 5.859375 -5.203125 L 6.09375 -4.890625 L 6.78125 -4.28125 L 7.546875 -3.875 L 7.953125 -3.828125 Z M 8.40625 -3.671875"/></g></g></g><g fill-opacity="1" fill="#ffffff"><g transform="translate(187.140915, 191.492536)"><g><path d="M 1.71875 -0.8125 L 1.6875 -9.265625 L 1.640625 -9.6875 L 1.625 -10.1875 L 1.6875 -11.03125 L 1.640625 -11.46875 L 1.6875 -11.90625 L 1.6875 -15.0625 L 1.890625 -15.5625 L 2.375 -15.734375 L 2.796875 -15.8125 L 3.703125 -15.71875 L 4.15625 -15.8125 L 5.03125 -15.8125 L 5.484375 -15.53125 L 5.703125 -15.03125 L 5.6875 -14.609375 L 5.75 -13.328125 L 5.703125 -12.421875 L 5.75 -11.875 L 5.734375 -4.234375 L 5.90625 -3.78125 L 6.359375 -3.609375 L 6.828125 -3.65625 L 7.71875 -3.609375 L 8.109375 -3.671875 L 8.5625 -3.578125 L 9.5 -3.609375 L 9.96875 -3.546875 L 10.390625 -3.625 L 10.875 -3.671875 L 11.265625 -3.40625 L 11.46875 -2.734375 L 11.5 -0.90625 L 11.25 -0.203125 L 10.828125 0.015625 L 6.359375 0 L 5.859375 0.046875 L 5.4375 -0.015625 L 4.578125 0.015625 L 3.703125 -0.015625 L 2.75 0.046875 L 2.296875 0 L 1.875 -0.21875 Z M 1.71875 -0.8125"/></g></g></g><g fill-opacity="1" fill="#ffffff"><g transform="translate(199.941268, 191.492536)"><g><path d="M 1.71875 -0.8125 L 1.6875 -9.265625 L 1.640625 -9.6875 L 1.625 -10.1875 L 1.6875 -11.03125 L 1.640625 -11.46875 L 1.6875 -11.90625 L 1.6875 -15.0625 L 1.890625 -15.5625 L 2.375 -15.734375 L 2.796875 -15.8125 L 3.703125 -15.71875 L 4.15625 -15.8125 L 5.03125 -15.8125 L 5.484375 -15.53125 L 5.703125 -15.03125 L 5.6875 -14.609375 L 5.75 -13.328125 L 5.703125 -12.421875 L 5.75 -11.875 L 5.734375 -4.234375 L 5.90625 -3.78125 L 6.359375 -3.609375 L 6.828125 -3.65625 L 7.71875 -3.609375 L 8.109375 -3.671875 L 8.5625 -3.578125 L 9.5 -3.609375 L 9.96875 -3.546875 L 10.390625 -3.625 L 10.875 -3.671875 L 11.265625 -3.40625 L 11.46875 -2.734375 L 11.5 -0.90625 L 11.25 -0.203125 L 10.828125 0.015625 L 6.359375 0 L 5.859375 0.046875 L 5.4375 -0.015625 L 4.578125 0.015625 L 3.703125 -0.015625 L 2.75 0.046875 L 2.296875 0 L 1.875 -0.21875 Z M 1.71875 -0.8125"/></g></g></g><g fill-opacity="1" fill="#ffffff"><g transform="translate(212.741621, 191.492536)"><g><path d="M 9.046875 0.296875 L 7.6875 0.21875 L 5.765625 -0.34375 L 5.34375 -0.515625 L 3.8125 -1.328125 L 3.515625 -1.671875 L 2.890625 -2.28125 L 1.828125 -3.71875 L 1.59375 -4.125 L 1.46875 -4.59375 L 1.125 -5.359375 L 0.875 -6.78125 L 0.96875 -9.40625 L 1.15625 -10.375 L 1.578125 -11.609375 L 1.78125 -12 L 2.546875 -13.125 L 3.15625 -13.796875 L 3.875 -14.296875 L 4.1875 -14.5625 L 5.34375 -15.28125 L 6.203125 -15.515625 L 6.609375 -15.6875 L 7.0625 -15.828125 L 7.515625 -15.921875 L 9.09375 -16.015625 L 10.140625 -15.984375 L 13.09375 -15.0625 L 14.25 -14.34375 L 15.21875 -13.453125 L 15.515625 -13.046875 L 15.78125 -12.78125 L 16.078125 -12.40625 L 16.234375 -12 L 16.640625 -11.25 L 16.75 -10.734375 L 16.9375 -10.265625 L 17.109375 -9.421875 L 17.21875 -7.875 L 17.109375 -6.296875 L 17.015625 -5.796875 L 16.890625 -5.4375 L 16.8125 -4.984375 L 16.65625 -4.546875 L 15.78125 -3 L 15.484375 -2.59375 L 13.90625 -1.078125 L 11.90625 -0.1875 L 11.046875 0.09375 Z M 8.40625 -3.671875 L 9.71875 -3.71875 L 10.140625 -3.828125 L 10.546875 -3.875 L 10.90625 -4.078125 L 11.3125 -4.265625 L 12.015625 -4.796875 L 12.28125 -5.203125 L 12.484375 -5.546875 L 12.734375 -5.890625 L 12.9375 -6.8125 L 13.078125 -7.9375 L 12.984375 -8.90625 L 12.828125 -9.3125 L 12.6875 -9.765625 L 12.515625 -10.171875 L 12 -10.9375 L 11.296875 -11.453125 L 10.09375 -11.96875 L 9.015625 -12.046875 L 7.984375 -11.953125 L 7.515625 -11.84375 L 7.109375 -11.640625 L 6.453125 -11.1875 L 6.109375 -10.890625 L 5.8125 -10.53125 L 5.609375 -10.140625 L 5.34375 -9.828125 L 5.203125 -9.421875 L 5.046875 -8.59375 L 5.03125 -7.90625 L 5.140625 -6.78125 L 5.5625 -5.53125 L 5.859375 -5.203125 L 6.09375 -4.890625 L 6.78125 -4.28125 L 7.546875 -3.875 L 7.953125 -3.828125 Z M 8.40625 -3.671875"/></g></g></g><g fill-opacity="1" fill="#ffffff"><g transform="translate(231.491265, 191.492536)"><g><path d="M 5.53125 -0.5 L 5.390625 -0.875 L 5.1875 -1.3125 L 3.359375 -6.421875 L 3.15625 -6.78125 L 2.53125 -8.484375 L 2.390625 -8.96875 L 1.46875 -11.5 L 1.265625 -11.875 L 0.3125 -14.453125 L 0.203125 -15.0625 L 0.296875 -15.578125 L 0.765625 -15.71875 L 1.234375 -15.734375 L 1.640625 -15.8125 L 2.046875 -15.71875 L 3.859375 -15.6875 L 4.28125 -15.484375 L 4.6875 -15.125 L 4.875 -14.671875 L 4.953125 -14.234375 L 5.234375 -13.34375 L 5.40625 -12.96875 L 6.859375 -8.046875 L 6.9375 -7.515625 L 7.125 -7.53125 L 7.46875 -8.390625 L 7.546875 -8.859375 L 7.78125 -9.203125 L 8.59375 -11.8125 L 8.921875 -12.625 L 9.671875 -14.859375 L 10.0625 -15.3125 L 10.5 -15.53125 L 11 -15.53125 L 11.46875 -15.265625 L 11.796875 -14.8125 L 11.96875 -14.40625 L 12.15625 -14.03125 L 12.421875 -13.125 L 12.609375 -12.6875 L 12.828125 -11.84375 L 13.796875 -9.296875 L 13.90625 -8.84375 L 14.359375 -7.546875 L 14.59375 -7.53125 L 14.71875 -7.953125 L 14.875 -8.90625 L 15.171875 -9.859375 L 15.265625 -10.296875 L 16.5 -14.265625 L 16.703125 -14.65625 L 16.8125 -15.078125 L 17.203125 -15.5625 L 17.671875 -15.78125 L 18.109375 -15.71875 L 18.578125 -15.765625 L 19.484375 -15.71875 L 20.265625 -15.765625 L 20.71875 -15.6875 L 21.171875 -15.578125 L 21.3125 -15.03125 L 20.875 -13.65625 L 20.65625 -13.25 L 20.546875 -12.765625 L 19.09375 -8.921875 L 19 -8.546875 L 18.796875 -8.140625 L 18.625 -7.515625 L 17.875 -5.59375 L 17.671875 -5.203125 L 16.328125 -1.28125 L 16.125 -0.875 L 15.984375 -0.453125 L 15.640625 -0.046875 L 15.109375 0.140625 L 14.71875 0.203125 L 14.296875 0.21875 L 13.78125 -0.046875 L 13.34375 -0.515625 L 13.21875 -0.953125 L 12.875 -1.6875 L 11.59375 -5.15625 L 11.203125 -5.9375 L 11.078125 -6.40625 L 10.84375 -6.78125 L 10.625 -6.859375 L 10.328125 -5.96875 L 9.921875 -5.125 L 9.78125 -4.640625 L 9.09375 -2.96875 L 8.96875 -2.609375 L 8.765625 -2.140625 L 8.65625 -1.765625 L 8.4375 -1.359375 L 8.296875 -0.859375 L 8.09375 -0.46875 L 7.734375 0 L 7.234375 0.1875 L 6.375 0.203125 L 5.890625 -0.09375 Z M 5.53125 -0.5"/></g></g></g><g fill-opacity="1" fill="#ffffff"><g transform="translate(253.666263, 191.492536)"><g><path d="M 7.546875 0.09375 L 7.109375 -0.015625 L 6 -0.015625 L 5.328125 0.0625 L 4.421875 -0.015625 L 3.96875 0.015625 L 3.265625 0.046875 L 2.609375 -0.046875 L 2.1875 0 L 1.765625 0 L 1.3125 -0.203125 L 1.078125 -0.8125 L 1.15625 -2.890625 L 1.390625 -3.296875 L 2.890625 -3.75 L 3.140625 -4.421875 L 3.0625 -11.34375 L 2.859375 -11.953125 L 2.4375 -12.21875 L 1.984375 -12.21875 L 1.484375 -12.46875 L 1.234375 -12.921875 L 1.28125 -13.34375 L 1.21875 -15.015625 L 1.4375 -15.5625 L 1.890625 -15.78125 L 2.40625 -15.78125 L 2.84375 -15.71875 L 4.6875 -15.71875 L 5.140625 -15.8125 L 5.546875 -15.765625 L 8.28125 -15.765625 L 8.6875 -15.515625 L 8.953125 -15.078125 L 8.921875 -12.859375 L 8.703125 -12.484375 L 8.234375 -12.3125 L 7.78125 -12.25 L 7.28125 -12.046875 L 7.125 -11.515625 L 7.03125 -9.25 L 7.125 -7.625 L 7.078125 -7.125 L 7.109375 -4.640625 L 7.03125 -4.21875 L 7.3125 -3.703125 L 7.84375 -3.515625 L 8.3125 -3.515625 L 8.8125 -3.265625 L 9.09375 -2.84375 L 9.09375 -0.609375 L 8.859375 -0.1875 L 8.453125 0.046875 Z M 7.546875 0.09375"/></g></g></g><g fill-opacity="1" fill="#ffffff"><g transform="translate(264.573661, 191.492536)"><g><path d="M 13.296875 -0.390625 L 12.96875 -0.671875 L 12.375 -1.328125 L 8.890625 -4.796875 L 8.5 -5.046875 L 8.203125 -5.390625 L 6.609375 -6.921875 L 6.3125 -7.3125 L 6.015625 -7.421875 L 5.859375 -7.03125 L 5.8125 -6.578125 L 5.796875 -0.875 L 5.5625 -0.1875 L 5.125 0.046875 L 4.640625 0.0625 L 3.765625 0 L 3.265625 0.046875 L 2.34375 0 L 1.875 -0.15625 L 1.671875 -0.59375 L 1.625 -2.484375 L 1.671875 -2.90625 L 1.625 -6.609375 L 1.6875 -6.984375 L 1.640625 -7.90625 L 1.671875 -8.296875 L 1.671875 -15.125 L 1.875 -15.5625 L 2.390625 -15.78125 L 3.0625 -15.625 L 3.578125 -15.359375 L 3.921875 -15.078125 L 8.359375 -10.59375 L 9 -10.09375 L 10.59375 -8.5 L 10.9375 -8.34375 L 11.078125 -8.71875 L 11.109375 -12.765625 L 11.078125 -13.25 L 11.140625 -14.203125 L 11.078125 -14.5625 L 11.09375 -15.03125 L 11.34375 -15.515625 L 11.765625 -15.765625 L 14.5625 -15.78125 L 15.015625 -15.53125 L 15.234375 -15.078125 L 15.3125 -11.953125 L 15.234375 -11.40625 L 15.234375 -9.171875 L 15.3125 -8.796875 L 15.265625 -0.5625 L 15.03125 -0.109375 L 14.546875 0.046875 L 13.90625 -0.015625 Z M 13.296875 -0.390625"/></g></g></g><g fill-opacity="1" fill="#ffffff"><g transform="translate(282.241621, 191.492536)"><g><path d="M 7.828125 0.21875 L 7.375 0.09375 L 6.09375 -0.140625 L 5.703125 -0.25 L 4.15625 -1.15625 L 3.40625 -1.671875 L 2.5 -2.609375 L 1.984375 -3.375 L 1.578125 -4.15625 L 0.953125 -6.265625 L 0.828125 -7.84375 L 0.859375 -8.5625 L 1.265625 -10.796875 L 2.09375 -12.484375 L 2.34375 -12.828125 L 2.6875 -13.171875 L 2.96875 -13.53125 L 3.96875 -14.40625 L 5.203125 -15.171875 L 6.9375 -15.8125 L 7.375 -15.828125 L 7.75 -15.96875 L 8.203125 -15.984375 L 10.296875 -15.890625 L 11.359375 -15.609375 L 11.84375 -15.515625 L 13.421875 -14.671875 L 13.75 -14.40625 L 14.109375 -14.0625 L 14.609375 -13.65625 L 15.515625 -12.359375 L 15.71875 -11.953125 L 16.03125 -11.03125 L 15.890625 -10.640625 L 15.328125 -10.390625 L 14.25 -10.46875 L 13.578125 -10.375 L 12.875 -10.390625 L 12.328125 -10.546875 L 11.859375 -10.9375 L 11.5625 -11.3125 L 11.296875 -11.609375 L 10.875 -11.90625 L 10.4375 -12.078125 L 9.609375 -12.3125 L 8.234375 -12.265625 L 7.84375 -12.078125 L 7.421875 -12.046875 L 7.03125 -11.84375 L 6.25 -11.265625 L 5.546875 -10.21875 L 5.1875 -9.40625 L 5.03125 -8.515625 L 5.046875 -7.21875 L 5.15625 -6.5 L 5.34375 -5.84375 L 5.765625 -5.03125 L 6.015625 -4.71875 L 6.703125 -4.078125 L 7.90625 -3.578125 L 9.0625 -3.453125 L 9.65625 -3.46875 L 10.53125 -3.671875 L 11.265625 -3.96875 L 11.59375 -4.21875 L 11.921875 -4.59375 L 12.15625 -4.984375 L 12.078125 -5.359375 L 11.75 -5.53125 L 11.34375 -5.59375 L 10.21875 -5.5 L 9.5625 -5.546875 L 9.15625 -5.796875 L 8.953125 -6.15625 L 8.953125 -8.296875 L 9.15625 -8.71875 L 9.609375 -8.953125 L 10.46875 -9.015625 L 11.8125 -8.921875 L 14.859375 -9 L 15.328125 -8.921875 L 15.8125 -8.90625 L 16.234375 -8.6875 L 16.453125 -8.296875 L 16.5 -7.4375 L 16.453125 -7.015625 L 16.453125 -6.5625 L 16.375 -6.15625 L 16.34375 -5.765625 L 16.171875 -4.921875 L 15.71875 -3.578125 L 15.4375 -3.265625 L 15.234375 -2.859375 L 15.015625 -2.484375 L 14.75 -2.171875 L 14.40625 -1.890625 L 14.0625 -1.53125 L 13.375 -0.984375 L 11.765625 -0.1875 L 10.078125 0.21875 Z M 7.828125 0.21875"/></g></g></g><g fill-opacity="1" fill="#ffffff"><g transform="translate(155.433172, 214.742535)"><g><path d="M 2.34375 0.0625 L 1.890625 -0.21875 L 1.640625 -0.703125 L 1.671875 -5.6875 L 1.625 -6.109375 L 1.6875 -8.390625 L 1.640625 -8.84375 L 1.671875 -12.453125 L 1.625 -12.859375 L 1.6875 -13.734375 L 1.625 -15.109375 L 1.875 -15.578125 L 2.375 -15.8125 L 3 -15.625 L 3.515625 -15.234375 L 4.109375 -14.640625 L 4.46875 -14.3125 L 5.046875 -13.625 L 5.359375 -13.34375 L 7.421875 -11.078125 L 7.90625 -10.625 L 8.3125 -10.09375 L 8.640625 -9.78125 L 8.90625 -9.40625 L 9.375 -9.21875 L 9.78125 -9.5 L 11.15625 -10.890625 L 11.453125 -11.265625 L 13.4375 -13.296875 L 13.75 -13.703125 L 14.03125 -13.953125 L 14.3125 -14.3125 L 15.265625 -15.3125 L 15.734375 -15.609375 L 16.390625 -15.8125 L 16.859375 -15.5625 L 17.140625 -15.078125 L 17.09375 -14.65625 L 17.109375 -13.734375 L 17.09375 -13.34375 L 17.140625 -12.375 L 17.109375 -11.953125 L 17.140625 -9.71875 L 17.09375 -9.21875 L 17.140625 -2.453125 L 17.09375 -2 L 17.15625 -0.828125 L 16.890625 -0.1875 L 16.40625 0.0625 L 13.6875 -0.015625 L 13.21875 -0.15625 L 13.03125 -0.671875 L 13.03125 -1.015625 L 12.984375 -2.03125 L 13.03125 -2.4375 L 12.984375 -3.265625 L 13.03125 -4.15625 L 12.96875 -5.046875 L 13.015625 -6.296875 L 12.828125 -6.625 L 12.53125 -6.5 L 11.609375 -5.546875 L 11.296875 -5.328125 L 10.671875 -4.578125 L 10.390625 -4.3125 L 10.078125 -3.96875 L 9.625 -3.625 L 9.125 -3.65625 L 8.65625 -3.984375 L 8.046875 -4.578125 L 7.75 -4.9375 L 6.828125 -5.859375 L 6.5625 -6.203125 L 6.203125 -6.5 L 5.96875 -6.578125 L 5.765625 -6.375 L 5.765625 -5.5 L 5.8125 -5 L 5.765625 -4.1875 L 5.796875 -3.71875 L 5.734375 -3.015625 L 5.796875 -0.65625 L 5.53125 -0.25 L 4.890625 0.015625 L 4.171875 -0.015625 L 3.671875 0.046875 L 2.796875 0 Z M 2.34375 0.0625"/></g></g></g><g fill-opacity="1" fill="#ffffff"><g transform="translate(174.94902, 214.742535)"><g><path d="M 7.84375 0.0625 L 7.390625 0.015625 L 6.9375 0.0625 L 6.421875 0.046875 L 6 -0.046875 L 5.078125 0.015625 L 4.671875 0 L 4.171875 0.046875 L 2.546875 0.015625 L 1.875 -0.265625 L 1.6875 -0.875 L 1.640625 -1.375 L 1.71875 -2.9375 L 1.640625 -3.375 L 1.6875 -3.8125 L 1.71875 -7.46875 L 1.640625 -7.875 L 1.671875 -9.71875 L 1.71875 -10.140625 L 1.640625 -10.625 L 1.6875 -12.828125 L 1.625 -13.328125 L 1.6875 -14.25 L 1.640625 -15.109375 L 1.890625 -15.578125 L 2.375 -15.765625 L 2.8125 -15.734375 L 3.265625 -15.78125 L 3.671875 -15.734375 L 4.109375 -15.828125 L 4.546875 -15.765625 L 6.40625 -15.8125 L 6.859375 -15.765625 L 7.234375 -15.78125 L 7.6875 -15.734375 L 8.1875 -15.78125 L 10.015625 -15.8125 L 10.421875 -15.71875 L 10.890625 -15.71875 L 11.34375 -15.53125 L 11.546875 -15.109375 L 11.59375 -13.75 L 11.5625 -13.296875 L 11.59375 -12.859375 L 11.359375 -12.453125 L 10.890625 -12.171875 L 10.46875 -12.15625 L 7.234375 -12.203125 L 6.8125 -12.109375 L 6.375 -12.125 L 5.890625 -11.953125 L 5.6875 -11.515625 L 5.6875 -10.828125 L 5.859375 -10.125 L 6.328125 -9.921875 L 7.640625 -9.96875 L 8.59375 -9.890625 L 9.0625 -9.9375 L 10.390625 -9.9375 L 10.90625 -9.65625 L 11.140625 -9.015625 L 11.078125 -6.984375 L 10.90625 -6.53125 L 10.46875 -6.359375 L 9.9375 -6.375 L 9.5 -6.328125 L 8.5625 -6.359375 L 7.71875 -6.3125 L 6.984375 -6.375 L 6.3125 -6.359375 L 5.90625 -6.109375 L 5.703125 -5.640625 L 5.703125 -4.21875 L 5.890625 -3.8125 L 6.359375 -3.578125 L 6.859375 -3.625 L 7.28125 -3.5625 L 7.78125 -3.578125 L 8.234375 -3.546875 L 8.96875 -3.625 L 10.125 -3.609375 L 10.546875 -3.546875 L 11.078125 -3.578125 L 11.546875 -3.375 L 11.796875 -2.9375 L 11.796875 -0.65625 L 11.546875 -0.1875 L 11.078125 0.015625 Z M 7.84375 0.0625"/></g></g></g><g fill-opacity="1" fill="#ffffff"><g transform="translate(188.538112, 214.742535)"><g/></g></g><g fill-opacity="1" fill="#ffffff"><g transform="translate(195.321563, 214.742535)"><g><path d="M 1.6875 -0.703125 L 1.640625 -1.125 L 1.6875 -6.0625 L 1.625 -6.734375 L 1.71875 -11.046875 L 1.640625 -12 L 1.6875 -13.328125 L 1.671875 -13.734375 L 1.6875 -14.203125 L 1.640625 -14.609375 L 1.640625 -15.109375 L 1.875 -15.578125 L 2.375 -15.8125 L 5.09375 -15.765625 L 5.5 -15.84375 L 6.375 -15.734375 L 6.78125 -15.828125 L 9.109375 -15.765625 L 9.984375 -15.5625 L 10.375 -15.421875 L 10.796875 -15.21875 L 11.1875 -15 L 11.5 -14.75 L 11.84375 -14.515625 L 12.171875 -14.203125 L 12.921875 -13.171875 L 13.078125 -12.6875 L 13.25 -11.875 L 13.296875 -11.1875 L 13.28125 -10.421875 L 13.015625 -9.609375 L 12.578125 -8.71875 L 12.421875 -8.296875 L 12.65625 -7.78125 L 13.015625 -7.46875 L 13.296875 -7.125 L 13.703125 -6.203125 L 13.953125 -5.390625 L 13.90625 -3.5625 L 13.734375 -3.140625 L 13.59375 -2.703125 L 13.375 -2.25 L 12.765625 -1.421875 L 11.859375 -0.703125 L 11.453125 -0.5 L 10.1875 -0.140625 L 9.78125 -0.0625 L 7.46875 0.046875 L 7.015625 -0.015625 L 3.75 0.015625 L 3.0625 -0.046875 L 2.328125 0.015625 L 1.890625 -0.25 Z M 6.3125 -9.625 L 8.046875 -9.6875 L 8.703125 -9.921875 L 9.046875 -10.1875 L 9.203125 -10.84375 L 9.125 -11.515625 L 8.953125 -11.875 L 8.59375 -12.0625 L 6.265625 -12.21875 L 5.84375 -11.953125 L 5.5625 -11.296875 L 5.59375 -10.53125 L 5.84375 -9.890625 Z M 6.25 -3.609375 L 7.984375 -3.5625 L 9.21875 -3.671875 L 9.609375 -3.921875 L 9.859375 -4.234375 L 9.96875 -4.890625 L 9.828125 -5.453125 L 9.609375 -5.859375 L 9.21875 -6.015625 L 7.109375 -6.21875 L 6.625 -6.171875 L 6.203125 -6.25 L 5.8125 -5.953125 L 5.609375 -5.5625 L 5.546875 -4.21875 L 5.84375 -3.765625 Z M 6.25 -3.609375"/></g></g></g><g fill-opacity="1" fill="#ffffff"><g transform="translate(210.87121, 214.742535)"><g><path d="M 13.296875 0.046875 L 12.828125 0 L 12.3125 -0.21875 L 11.859375 -0.5625 L 11.71875 -0.96875 L 11.515625 -1.390625 L 11.09375 -1.765625 L 10.59375 -2 L 10.09375 -1.9375 L 9.6875 -1.984375 L 7.484375 -1.96875 L 7.078125 -2.03125 L 6.125 -1.9375 L 5.703125 -2 L 5.234375 -1.765625 L 4.796875 -1.328125 L 4.390625 -0.59375 L 3.96875 -0.1875 L 3.453125 -0.015625 L 2.1875 0.015625 L 1.734375 -0.015625 L 0.859375 0.015625 L 0.40625 -0.109375 L 0.296875 -0.671875 L 0.421875 -1.125 L 0.875 -2.03125 L 0.984375 -2.4375 L 1.234375 -2.75 L 1.578125 -3.65625 L 1.984375 -4.375 L 2.140625 -4.828125 L 2.375 -5.15625 L 2.5 -5.65625 L 4.796875 -10.484375 L 4.9375 -10.890625 L 5.1875 -11.3125 L 5.296875 -11.765625 L 5.546875 -12.109375 L 6.453125 -14.1875 L 6.65625 -14.5 L 6.8125 -14.953125 L 7.015625 -15.328125 L 7.421875 -15.71875 L 8.140625 -15.96875 L 8.890625 -15.734375 L 9.265625 -15.328125 L 9.6875 -14.546875 L 9.828125 -14.140625 L 10.078125 -13.734375 L 10.21875 -13.28125 L 11.703125 -10.140625 L 11.859375 -9.671875 L 12.328125 -8.84375 L 12.46875 -8.484375 L 12.671875 -8.140625 L 12.8125 -7.640625 L 13.03125 -7.21875 L 13.25 -6.875 L 14.109375 -4.828125 L 14.5625 -4.015625 L 14.875 -3.171875 L 15.484375 -2 L 15.828125 -1.171875 L 15.984375 -0.65625 L 15.921875 -0.109375 L 15.28125 0 L 14.59375 0.015625 L 14.15625 -0.015625 Z M 8.1875 -5.5625 L 9.09375 -5.59375 L 9.421875 -5.765625 L 9.515625 -6.171875 L 8.453125 -8.65625 L 8.140625 -8.84375 L 7.890625 -8.640625 L 6.828125 -6.203125 L 6.859375 -5.765625 L 7.21875 -5.609375 L 7.734375 -5.65625 Z M 8.1875 -5.5625"/></g></g></g><g fill-opacity="1" fill="#ffffff"><g transform="translate(227.908177, 214.742535)"><g><path d="M 7.84375 0.1875 L 7.421875 0.15625 L 7.015625 0.0625 L 6.5625 -0.09375 L 6.15625 -0.1875 L 5.140625 -0.609375 L 4.171875 -1.125 L 3.15625 -2 L 2.234375 -3 L 1.265625 -4.953125 L 0.953125 -6.25 L 0.8125 -7.890625 L 1.03125 -9.828125 L 1.265625 -10.75 L 1.828125 -12.015625 L 2.25 -12.671875 L 2.859375 -13.4375 L 3.828125 -14.3125 L 4.484375 -14.8125 L 6.15625 -15.609375 L 8.34375 -16.03125 L 9.734375 -16.015625 L 10.1875 -15.9375 L 10.625 -15.921875 L 12.78125 -15.203125 L 14.3125 -14.234375 L 14.953125 -13.578125 L 15.203125 -13.140625 L 15.515625 -12.765625 L 15.71875 -12.40625 L 15.96875 -12.046875 L 16.09375 -11.5625 L 16.25 -11.15625 L 16.390625 -10.671875 L 16.234375 -10.21875 L 15.84375 -10.03125 L 15.171875 -9.96875 L 14.546875 -10.03125 L 14.09375 -10.015625 L 13.625 -10.03125 L 13.21875 -9.984375 L 12.6875 -10.234375 L 12.265625 -10.671875 L 12.015625 -11 L 11.359375 -11.65625 L 11.046875 -11.90625 L 10.640625 -12.0625 L 9.9375 -12.265625 L 8.96875 -12.3125 L 7.46875 -12.109375 L 6.859375 -11.765625 L 6.3125 -11.34375 L 5.765625 -10.703125 L 5.546875 -10.28125 L 5.203125 -9.46875 L 5.046875 -8.5625 L 5.046875 -7.1875 L 5.125 -6.703125 L 5.234375 -6.296875 L 5.390625 -5.96875 L 5.546875 -5.53125 L 6.046875 -4.734375 L 6.703125 -4.15625 L 7.484375 -3.75 L 8.296875 -3.453125 L 8.953125 -3.375 L 10.140625 -3.453125 L 10.9375 -3.875 L 11.265625 -4.015625 L 11.640625 -4.328125 L 12.15625 -4.921875 L 12.375 -5.34375 L 12.734375 -5.703125 L 13.25 -5.96875 L 13.703125 -5.953125 L 14.15625 -5.96875 L 14.609375 -5.90625 L 15.875 -6 L 16.328125 -5.703125 L 16.453125 -5.296875 L 15.875 -3.578125 L 15.40625 -2.765625 L 14.875 -2.09375 L 14.25 -1.46875 L 13.140625 -0.671875 L 12.765625 -0.5 L 12.28125 -0.34375 L 11.875 -0.109375 L 10.546875 0.15625 L 8.96875 0.265625 Z M 7.84375 0.1875"/></g></g></g><g fill-opacity="1" fill="#ffffff"><g transform="translate(245.778949, 214.742535)"><g><path d="M 2.34375 0.0625 L 1.9375 -0.203125 L 1.71875 -0.90625 L 1.671875 -2.046875 L 1.71875 -2.5 L 1.671875 -2.96875 L 1.6875 -3.34375 L 1.640625 -4.265625 L 1.71875 -5.1875 L 1.671875 -5.59375 L 1.6875 -6.46875 L 1.625 -6.96875 L 1.71875 -7.890625 L 1.640625 -8.28125 L 1.6875 -11.046875 L 1.625 -11.5 L 1.6875 -11.953125 L 1.640625 -14.703125 L 1.6875 -15.078125 L 1.890625 -15.515625 L 2.34375 -15.8125 L 2.84375 -15.828125 L 3.296875 -15.78125 L 3.71875 -15.8125 L 4.84375 -15.6875 L 5.5 -15.484375 L 5.796875 -15.125 L 5.75 -14.203125 L 5.765625 -13.5 L 5.734375 -12.96875 L 5.765625 -12.5625 L 5.796875 -10.9375 L 5.765625 -10.5 L 5.890625 -10.03125 L 6.265625 -9.765625 L 6.765625 -9.765625 L 7.21875 -9.890625 L 7.71875 -9.96875 L 8.109375 -10.140625 L 8.90625 -10.703125 L 9.421875 -11.4375 L 9.5625 -11.90625 L 9.6875 -12.25 L 9.875 -13.703125 L 9.859375 -14.15625 L 9.921875 -14.59375 L 9.921875 -15.078125 L 10.09375 -15.515625 L 10.578125 -15.78125 L 11.25 -15.8125 L 11.921875 -15.71875 L 12.671875 -15.8125 L 13.34375 -15.734375 L 13.84375 -15.53125 L 14.046875 -15.078125 L 13.984375 -13.6875 L 14.03125 -13.234375 L 13.859375 -11.796875 L 13.484375 -10.484375 L 13.328125 -10.078125 L 12.984375 -9.5 L 12.265625 -8.5625 L 11.5625 -7.984375 L 11.265625 -7.515625 L 11.359375 -6.984375 L 12.109375 -5.796875 L 12.28125 -5.40625 L 12.53125 -4.984375 L 12.78125 -4.671875 L 13.484375 -3.515625 L 13.78125 -3.15625 L 15.171875 -0.609375 L 15.0625 -0.109375 L 14.59375 0 L 14.140625 -0.015625 L 13.734375 0.015625 L 11.453125 0.046875 L 10.9375 -0.1875 L 10.5 -0.609375 L 10.28125 -0.90625 L 10.0625 -1.328125 L 9.78125 -1.671875 L 9.359375 -2.5 L 9.15625 -2.8125 L 9 -3.203125 L 8.078125 -4.71875 L 7.90625 -5.1875 L 7.6875 -5.546875 L 7.171875 -5.9375 L 6.5625 -5.96875 L 6 -5.734375 L 5.75 -5.34375 L 5.8125 -2.96875 L 5.75 -2.5 L 5.796875 -0.703125 L 5.546875 -0.203125 L 5.09375 -0.015625 L 4.375 0.046875 L 3.75 0 Z M 2.34375 0.0625"/></g></g></g></svg>